<?xml version="1.0" standalone="no"?>
<!DOCTYPE svg PUBLIC "-//W3C//DTD SVG 20010904//EN"
 "http://www.w3.org/TR/2001/REC-SVG-20010904/DTD/svg10.dtd">
<svg version="1.0" xmlns="http://www.w3.org/2000/svg"
 width="440.000000pt" height="440.000000pt" viewBox="0 0 440.000000 440.000000"
 preserveAspectRatio="xMidYMid meet">
<metadata>
Created by potrace 1.14, written by Peter Selinger 2001-2017
</metadata>
<g transform="translate(0.000000,440.000000) scale(0.100000,-0.100000)"
fill="#000000" stroke="none">
<path d="M3060 3662 c-19 -2 -38 -6 -42 -10 -5 -6 -16 -64 -23 -132 -1 -14 -5
-45 -9 -70 -9 -52 -12 -77 -21 -140 -3 -25 -8 -56 -10 -70 -2 -14 -7 -45 -10
-70 -3 -25 -10 -72 -15 -105 -5 -33 -12 -80 -15 -105 -3 -25 -8 -56 -10 -70
-2 -14 -7 -45 -10 -70 -4 -25 -8 -56 -10 -70 -2 -14 -9 -61 -15 -106 -6 -44
-12 -89 -14 -100 -5 -29 -15 -93 -21 -149 -3 -27 -10 -66 -14 -85 -21 -97 8
-172 79 -207 56 -27 81 -32 197 -38 103 -5 97 -10 108 80 4 28 10 73 15 100 5
28 12 73 15 100 3 28 8 64 10 80 11 71 57 393 61 425 3 19 9 39 15 45 14 14
152 19 191 6 19 -6 50 -27 69 -47 32 -33 34 -39 34 -102 0 -59 -7 -125 -19
-187 -2 -11 -7 -42 -10 -70 -4 -27 -10 -66 -12 -85 -3 -19 -7 -46 -9 -60 -3
-14 -7 -47 -10 -75 -4 -27 -10 -66 -14 -85 -4 -19 -4 -57 1 -84 12 -82 69
-124 193 -142 35 -5 175 -7 179 -3 2 2 14 74 26 159 26 188 27 194 35 248 4
23 8 52 10 65 1 12 10 76 20 142 30 210 24 308 -25 405 -44 86 -170 181 -280
210 -83 22 -104 25 -223 23 l-118 -1 5 47 c7 54 17 118 22 146 8 39 6 120 -4
146 -14 35 -65 76 -110 89 -48 14 -168 26 -212 22z"/>
<path d="M540 3589 c-112 -13 -143 -17 -197 -24 l-53 -8 -1 -41 c0 -22 -1
-570 -1 -1216 0 -855 3 -1191 11 -1232 20 -95 82 -170 166 -202 77 -29 292
-40 435 -21 79 10 153 24 159 31 3 3 7 220 7 482 1 262 2 482 3 487 1 6 7 3
14 -6 7 -9 31 -38 54 -65 23 -27 50 -58 60 -70 10 -12 41 -48 69 -80 71 -82
180 -210 234 -274 25 -30 63 -75 85 -100 22 -26 63 -73 90 -106 55 -64 147
-158 213 -216 106 -92 269 -128 429 -94 163 35 296 181 309 340 l5 61 -93 96
c-51 53 -147 154 -213 225 -66 70 -127 135 -135 144 -8 9 -49 54 -90 100 -41
46 -86 95 -100 109 -14 15 -59 64 -100 111 -41 47 -91 102 -110 123 -19 22
-35 43 -35 47 0 5 140 150 311 323 365 367 429 447 463 575 15 52 17 136 6
182 -5 19 -9 37 -10 40 -4 21 -50 92 -79 122 -88 93 -193 133 -382 145 l-80 5
-74 -84 c-109 -125 -120 -138 -180 -208 -30 -36 -58 -67 -61 -70 -3 -3 -48
-54 -99 -115 -52 -60 -96 -112 -99 -115 -5 -4 -88 -101 -147 -170 -40 -47
-239 -275 -251 -288 -10 -10 -13 67 -12 380 0 389 -4 447 -35 522 -16 39 -94
119 -107 110 -5 -3 -9 -1 -9 4 0 8 -55 23 -132 37 -49 9 -174 11 -238 4z"/>
<path d="M3385 1743 c-137 -16 -311 -86 -423 -170 -75 -56 -85 -142 -26 -212
46 -56 58 -57 116 -11 155 123 349 166 386 85 11 -25 9 -26 -121 -91 -211
-106 -273 -157 -301 -248 -34 -110 19 -261 113 -320 119 -75 277 -64 498 34
156 71 267 184 265 272 -1 34 -156 461 -188 515 -58 100 -190 161 -319 146z
m146 -560 c7 -16 19 -49 29 -74 l17 -46 -31 -21 c-91 -62 -183 -76 -218 -32
-43 53 -15 97 101 155 47 24 87 44 89 44 1 1 7 -11 13 -26z"/>
</g>
</svg>
