<svg width="81" height="145" viewBox="0 0 81 145" fill="none" xmlns="http://www.w3.org/2000/svg">
<rect x="75.4073" y="4.04546" width="135.364" height="71.3664" rx="35.6832" transform="rotate(89.3451 75.4073 4.04546)" stroke="#FE7759" stroke-width="8"/>
<circle cx="27.969" cy="41.4357" r="4.14357" fill="#FE7759"/>
<circle cx="51.7947" cy="41.4357" r="4.14357" fill="#FE7759"/>
<path d="M44.6967 61.0946C45.0033 61.0946 45.27 61.2146 45.4967 61.4546C45.7233 61.6813 45.8367 61.9746 45.8367 62.3346C45.8367 62.4279 45.83 62.5146 45.8167 62.5946C45.8033 62.6613 45.7833 62.7279 45.7567 62.7946L42.6967 71.0346C42.6033 71.3013 42.4367 71.508 42.1967 71.6546C41.9567 71.788 41.7033 71.8346 41.4367 71.7946C40.9833 71.768 40.6433 71.5146 40.4167 71.0346L38.4367 65.3346L38.9567 65.3546L37.0967 71.0346C36.87 71.5146 36.53 71.768 36.0767 71.7946C35.8233 71.8346 35.57 71.788 35.3167 71.6546C35.0767 71.508 34.91 71.3013 34.8167 71.0346L31.7567 62.7946C31.7033 62.6479 31.6767 62.4946 31.6767 62.3346C31.6767 62.0146 31.7833 61.7279 31.9967 61.4746C32.21 61.2213 32.5033 61.0946 32.8767 61.0946C33.13 61.0946 33.3567 61.1546 33.5567 61.2746C33.7567 61.3946 33.8967 61.5879 33.9767 61.8546L36.3967 68.4146L35.8967 68.3746L37.7167 63.4346C37.93 62.9413 38.2967 62.6946 38.8167 62.6946C39.11 62.6946 39.33 62.7613 39.4767 62.8946C39.6367 63.0146 39.7633 63.1946 39.8567 63.4346L41.6767 68.3746L41.0767 68.4546L43.5367 61.8546C43.6967 61.3479 44.0833 61.0946 44.6967 61.0946Z" fill="#FE7759"/>
</svg>
