<svg width="991" height="324" viewBox="0 0 991 324" fill="none" xmlns="http://www.w3.org/2000/svg">
<path fill-rule="evenodd" clip-rule="evenodd" d="M971.825 135.088C971.788 122.572 963.512 112.439 953.31 112.439C963.535 112.439 971.825 102.262 971.825 89.7068C971.861 102.223 980.137 112.355 990.34 112.355C980.114 112.355 971.825 122.533 971.825 135.088Z" fill="#8F634F"/>
<path fill-rule="evenodd" clip-rule="evenodd" d="M925.753 67.544C925.697 48.9152 913.381 33.8346 898.195 33.8346C913.415 33.8346 925.753 18.6861 925.753 0C925.807 18.6288 938.124 33.7094 953.31 33.7094C938.09 33.7094 925.753 48.8578 925.753 67.544Z" fill="#8F634F"/>
<path fill-rule="evenodd" clip-rule="evenodd" d="M18.5152 188.912C18.5523 201.428 26.8275 211.561 37.0303 211.561C26.8047 211.561 18.5152 221.738 18.5152 234.293C18.4784 221.777 10.203 211.645 0.00018149 211.645C10.2259 211.645 18.5152 201.467 18.5152 188.912Z" fill="#8F634F"/>
<path fill-rule="evenodd" clip-rule="evenodd" d="M64.5872 256.456C64.6424 275.085 76.959 290.165 92.1445 290.165C76.9251 290.165 64.5872 305.314 64.5872 324C64.5324 305.371 52.2155 290.291 37.03 290.291C52.2497 290.291 64.5872 275.142 64.5872 256.456Z" fill="#8F634F"/>
</svg>
