<svg width="1048" height="325" viewBox="0 0 1048 325" fill="none" xmlns="http://www.w3.org/2000/svg">
<path fill-rule="evenodd" clip-rule="evenodd" d="M1027.88 135.505C1027.84 122.95 1019.08 112.786 1008.29 112.786C1019.11 112.786 1027.88 102.577 1027.88 89.9837C1027.91 102.539 1036.67 112.702 1047.46 112.702C1036.64 112.702 1027.88 122.911 1027.88 135.505Z" fill="#608B86"/>
<path fill-rule="evenodd" clip-rule="evenodd" d="M979.146 67.7524C979.087 49.0661 966.06 33.939 949.999 33.939C966.096 33.939 979.146 18.7438 979.146 0C979.204 18.6863 992.231 33.8134 1008.29 33.8134C992.195 33.8134 979.146 49.0086 979.146 67.7524Z" fill="#608B86"/>
<path fill-rule="evenodd" clip-rule="evenodd" d="M19.5831 189.495C19.6222 202.05 28.3747 212.213 39.166 212.213C28.3507 212.213 19.5831 222.423 19.5831 235.016C19.5441 222.461 10.7914 212.298 0.000154694 212.298C10.8157 212.298 19.5831 202.089 19.5831 189.495Z" fill="#608B86"/>
<path fill-rule="evenodd" clip-rule="evenodd" d="M68.3123 257.248C68.3706 275.934 81.3976 291.061 97.459 291.061C81.3617 291.061 68.3123 306.256 68.3123 325C68.2543 306.314 55.227 291.187 39.1656 291.187C55.2631 291.187 68.3123 275.991 68.3123 257.248Z" fill="#608B86"/>
</svg>
