<svg width="1345" height="359" viewBox="0 0 1345 359" fill="none" xmlns="http://www.w3.org/2000/svg">
<path fill-rule="evenodd" clip-rule="evenodd" d="M1319.65 149.681C1319.6 135.812 1308.36 124.586 1294.5 124.586C1308.39 124.586 1319.65 113.308 1319.65 99.3974C1319.7 113.266 1330.93 124.493 1344.79 124.493C1330.9 124.493 1319.65 135.77 1319.65 149.681Z" fill="#D08748"/>
<path fill-rule="evenodd" clip-rule="evenodd" d="M1257.08 74.8404C1257.01 54.1992 1240.29 37.4895 1219.66 37.4895C1240.33 37.4895 1257.08 20.7047 1257.08 0C1257.16 20.6412 1273.88 37.3508 1294.5 37.3508C1273.84 37.3508 1257.08 54.1357 1257.08 74.8404Z" fill="#D08748"/>
<path fill-rule="evenodd" clip-rule="evenodd" d="M25.1415 209.319C25.1918 223.188 36.4287 234.414 50.2832 234.414C36.3978 234.414 25.1415 245.692 25.1415 259.603C25.0915 245.734 13.8543 234.508 -0.000185299 234.508C13.8854 234.508 25.1415 223.23 25.1415 209.319Z" fill="#D08748"/>
<path fill-rule="evenodd" clip-rule="evenodd" d="M87.7038 284.16C87.7787 304.801 104.503 321.51 125.124 321.51C104.457 321.51 87.7038 338.295 87.7038 359C87.6293 338.359 70.9042 321.649 50.2836 321.649C70.9506 321.649 87.7038 304.864 87.7038 284.16Z" fill="#D08748"/>
</svg>
